# xmcd
#
# Track frame offsets:
# 150
# 22100
# 38440
# 74572
# 97950
# 118782
# 148497
# 168907
# 215687
# 233650
# 243487
# 269650
# 293670
#
# Disc length: 4333 seconds
#
#
# Revision: 2
# Processed by: cddbd v1.5.1PL2 Copyright (c) Steve Scherf et al.
# Submitted via: FreeRIP 2.945 
#
DISCID=c610eb0d
DTITLE=Sun Walk and Dog Brothers - Blues Everyday
DYEAR=1999
DGENRE=Blues
TTITLE0=Water Blues
TTITLE1=Trouble In The Neighbourhood
TTITLE2=Love Is Freedom
TTITLE3=Tell Me What To Do
TTITLE4=Blues Make Me Feel Good
TTITLE5=Lady Of Love
TTITLE6=Bad Times
TTITLE7=Don't Leave Me Alone
TTITLE8=Money To Pay Account
TTITLE9=Tell Me, Tell Me Baby
TTITLE10=When You Meet A Real Love
TTITLE11=Blues Everyday
TTITLE12=Lord Is here
EXTD=riped by Simon
EXTT0=
EXTT1=
EXTT2=
EXTT3=
EXTT4=
EXTT5=
EXTT6=
EXTT7=
EXTT8=
EXTT9=
EXTT10=
EXTT11=
EXTT12=
PLAYORDER=
